
<svg width="100px" height="100px" viewBox="0 0 100 100" version="1.1" xmlns="http://www.w3.org/2000/svg" xmlns:xlink="http://www.w3.org/1999/xlink">
	<g id="Page-1" stroke="none" stroke-width="1" fill="none" fill-rule="evenodd">
		<path d="M52.6990403,100 C51.9289621,100 51.1954945,99.9800928 50.5112609,99.952602 C44.9023156,100 39.1014817,100.052138 34.4747012,97.1665412 L32.5457187,95.9683172 C24.7691929,91.1412939 16.7275584,86.1502734 11.2246563,79.3713961 C9.44716471,77.1825513 8.94598285,74.8060104 8.46373741,72.5072022 L8.29962225,71.7336651 C7.94614381,70.1126499 7.70502093,68.4594038 7.47021039,66.8601918 L7.33008137,65.9122295 C7.21520078,65.1358487 6.87687142,64.5860305 6.23429819,64.1253209 C4.77998686,63.0825627 3.56932309,61.8274607 2.53792356,60.2898663 C1.50273667,58.7475319 1.22879095,57.3274845 1.67821355,55.8192767 C2.64522944,52.562079 1.87136419,49.3598627 1.08866191,46.9330797 L0.910660348,46.3870535 C0.447351017,44.9774338 -0.0323697342,43.5194681 0.00171576825,41.9913532 C0.0534750318,39.690649 1.4509774,38.6090242 4.39999761,38.5900651 C4.70045411,38.5881689 4.79134857,38.5455108 4.79261091,38.5445629 C4.82543409,38.4990607 4.8367958,38.2848212 4.8443705,38.1568461 L4.85573224,37.9881091 C4.96682546,36.6258875 4.7320146,35.2958966 4.48458001,33.8872247 C4.34445099,33.0928325 4.19927225,32.2700014 4.12478921,31.4490663 C3.48979034,24.4379381 4.08691669,16.4674725 13.3316406,10.5123745 C17.4130542,7.88367559 21.8365845,5.78393941 26.4734642,4.27288765 C32.4851224,2.3134501 39.3034696,0.95881202 47.3185933,0.129345335 C51.051578,-0.256475313 54.7050303,0.293342724 58.2372898,0.827045466 L59.3709459,0.996730507 C66.4253658,2.04138491 72.4812091,3.65007658 77.8843795,5.9166541 C82.353357,7.79077518 85.9727239,9.823206 88.954567,12.1295978 C93.7265261,15.8228583 95.0066233,20.5683568 95.8322477,24.7270668 C96.4735585,27.9634093 96.2248613,31.2898087 95.0924679,34.6143117 C94.9384522,35.0674378 94.9649633,35.587869 94.9914742,36.1386348 C95.0015734,36.3367588 95.0104103,36.5348831 95.0116729,36.7311111 C95.0141976,36.9273393 95.0028357,37.1283073 94.9902114,37.3273795 C94.9586509,37.8231635 94.9270904,38.336959 95.1783127,38.51328 C95.2742568,38.5815333 95.6138487,38.7303634 96.6540851,38.6412549 C97.4102765,38.5748976 98.1096587,38.7682819 98.6891111,39.1939169 C99.6346658,39.8868773 100.127011,41.1343954 99.9717328,42.4482709 C99.8076176,43.8247119 99.6321411,45.0608544 99.130959,46.2543388 C97.8622239,49.2717024 97.6299381,52.4530632 98.4000164,56.2667147 C99.0400646,59.439544 96.5745524,61.8113455 94.6657688,63.319553 C93.1912588,64.4827027 92.7115379,65.7728792 92.4110813,67.4763672 L92.2406542,68.4527681 C91.854353,70.6681555 91.4541646,72.9603281 90.95677,75.2060503 C90.604554,76.7948349 89.7132834,78.3248459 88.0658211,80.1676843 C83.9654713,84.7567689 78.8917931,88.885144 72.9823909,92.4352622 C71.6858826,93.2144869 70.428509,94.0790283 69.2140582,94.9151311 C68.5399241,95.3786846 67.8657904,95.84129 67.1802947,96.2953639 C62.490393,99.3961482 57.0102146,100 52.6990403,100" id="Shape" fill="#D8D8D8" fill-rule="nonzero"></path>
	</g>
</svg>
